<svg width="29" height="29" viewBox="0 0 29 29" fill="none" xmlns="http://www.w3.org/2000/svg">
<path d="M4.42668 4.07032C3.04178 5.4079 1.93714 7.0079 1.17721 8.77695C0.417278 10.546 0.0172778 12.4487 0.000547473 14.374C-0.0161829 16.2993 0.350692 18.2087 1.07976 19.9907C1.80884 21.7727 2.88551 23.3916 4.24695 24.753C5.6084 26.1145 7.22735 27.1912 9.00935 27.9202C10.7913 28.6493 12.7007 29.0162 14.626 28.9995C16.5513 28.9827 18.454 28.5827 20.223 27.8228C21.9921 27.0629 23.5921 25.9582 24.9297 24.5733C27.571 21.8386 29.0325 18.1759 28.9995 14.374C28.9664 10.5721 27.4415 6.93537 24.753 4.24695C22.0646 1.55853 18.4279 0.0335846 14.626 0.000547409C10.8241 -0.0324898 7.16141 1.42903 4.42668 4.07032ZM6.47118 6.11482C8.64781 3.93819 11.6 2.71537 14.6782 2.71537C17.7564 2.71537 20.7085 3.93819 22.8852 6.11482C25.0618 8.29145 26.2846 11.2436 26.2846 14.3218C26.2846 17.4 25.0618 20.3522 22.8852 22.5288C20.7085 24.7055 17.7564 25.9283 14.6782 25.9283C11.6 25.9283 8.64781 24.7055 6.47118 22.5288C4.29455 20.3522 3.07173 17.4 3.07173 14.3218C3.07173 11.2436 4.29455 8.29145 6.47118 6.11482ZM20.8262 18.4253L16.7227 14.3218L20.8262 10.2183L18.7817 8.17382L14.6782 12.2773L10.5747 8.17382L8.53018 10.2183L12.6337 14.3218L8.53018 18.4253L10.5747 20.4698L14.6782 16.3663L18.7817 20.4698L20.8262 18.4253Z" fill="#7C7C7C"/>
</svg>
